<?xml version="1.0" encoding="UTF-8" standalone="no"?>
<!-- Created with Inkscape (http://www.inkscape.org/) -->

<svg
   width="48"
   height="48"
   viewBox="0 0 48 48"
   version="1.1"
   id="svg1"
   xml:space="preserve"
   xmlns="http://www.w3.org/2000/svg"
   xmlns:svg="http://www.w3.org/2000/svg"><defs
     id="defs1" /><g
     id="layer2"><g
       id="g8"
       transform="translate(-0.20421875)"><path
         style="fill:none;stroke:#ffffff;stroke-width:1;stroke-linecap:round;stroke-linejoin:round;stroke-dasharray:none"
         d="m 21.945219,36.722943 c -2.85068,2.702694 -5.941883,4.439583 -8.81986,4.439583 -4.3540612,0 -8.2692125,-3.78829 -8.2692125,-8.28906 0,-7.931168 10.0603965,-11.663368 19.3528005,-11.663368 1.023506,0 2.049259,0.04245 3.065079,0.128001 m 7.150649,1.428344 c 5.256489,1.777618 9.127616,5.10336 9.127616,10.107023 0,4.973277 -4.13372,8.28906 -8.310544,8.28906 -6.018321,0 -13.149187,-7.653411 -16.848385,-16.002563 m -2.151889,-6.753619 c -0.232252,-1.252666 -0.35642,-2.478022 -0.35642,-3.651444 0,-5.0687319 3.538878,-8.9382431 8.323894,-8.9859287 4.785015,-0.047685 8.327581,3.8851839 8.327581,8.9859287 0,5.058232 -2.50744,11.412632 -6.08489,16.620492"
         id="path1" /><path
         class="r"
         d="m 31.09507,35.950386 h 2.560033 v -0.217021 c -1.491266,-0.525496 -2.560033,-1.946909 -2.560033,-3.617949 0,-2.117997 1.716972,-3.834973 3.83497,-3.834973 2.117987,0 3.83497,1.716976 3.83497,3.834973 0,1.671031 -1.068776,3.092443 -2.560033,3.617949 v 0.217376 h 2.560033"
         id="path263"
         style="fill:none;stroke:#ffffff;stroke-width:1;stroke-linecap:round;stroke-linejoin:round;stroke-dasharray:none" /><g
         id="g1"
         transform="matrix(1.0157457,0,0,1.0157457,16.94897,-29.107892)"
         style="stroke-width:0.984498;stroke-dasharray:none"><line
           class="r"
           x1="8.9149551"
           y1="43.503323"
           x2="5.370605"
           y2="43.503323"
           id="line241"
           style="fill:none;stroke:#ffffff;stroke-width:0.984498;stroke-linecap:round;stroke-linejoin:round;stroke-dasharray:none" /><polyline
           class="r"
           points="87.18380544 48.65004656 89.83380544 40.65 92.48380544 48.65004656"
           id="polyline241"
           style="fill:none;stroke:#ffffff;stroke-width:0.984498;stroke-linecap:round;stroke-linejoin:round;stroke-dasharray:none"
           transform="translate(-82.691025,-2.4966794)" /></g><g
         id="g7"
         transform="matrix(1.3588767,0,0,1.3588767,-7.6295157,-9.250746)"
         style="stroke-width:0.735902;stroke-dasharray:none"><g
           id="g5"
           transform="translate(0,-0.1299639)"
           style="stroke-width:0.735902;stroke-dasharray:none"><path
             style="fill:none;stroke:#ffffff;stroke-width:0.735902;stroke-linecap:round;stroke-linejoin:round;stroke-dasharray:none"
             d="m 12.791246,28.876506 h 5.656855"
             id="path4" /><path
             style="fill:none;stroke:#ffffff;stroke-width:0.735902;stroke-linecap:round;stroke-linejoin:round;stroke-dasharray:none"
             d="m 15.619673,27.630772 v 1.164046"
             id="path5" /></g><g
           id="g6"
           transform="translate(0.065148)"
           style="stroke-width:0.735902;stroke-dasharray:none"><path
             style="fill:none;stroke:#ffffff;stroke-width:0.735902;stroke-linecap:round;stroke-linejoin:round;stroke-dasharray:none"
             d="m 17.279856,28.997901 c -0.641412,2.839884 -3.542083,3.883949 -4.216004,4.139222"
             id="path4-5" /><path
             style="fill:none;stroke:#ffffff;stroke-width:0.735902;stroke-linecap:round;stroke-linejoin:round;stroke-dasharray:none"
             d="m 13.829195,28.997901 c 0.641412,2.839884 3.542083,3.883949 4.216004,4.139222"
             id="path6" /></g></g></g></g></svg>
